<?xml version="1.0" standalone="no"?>
<!DOCTYPE svg PUBLIC "-//W3C//DTD SVG 20010904//EN"
 "http://www.w3.org/TR/2001/REC-SVG-20010904/DTD/svg10.dtd">
<svg version="1.0" xmlns="http://www.w3.org/2000/svg"
 width="401.000000pt" height="401.000000pt" viewBox="0 0 401.000000 401.000000"
 preserveAspectRatio="xMidYMid meet">
<metadata>
Created by potrace 1.14, written by Peter Selinger 2001-2017
</metadata>
<g transform="translate(0.000000,401.000000) scale(0.100000,-0.100000)"
fill="#000000" stroke="none">
<path d="M453 3893 c-54 -18 -108 -70 -136 -131 l-22 -48 0 -1710 0 -1709 27
-55 c30 -60 76 -99 144 -121 33 -12 210 -14 985 -13 l944 1 47 22 c59 28 91
60 120 119 l23 47 0 1705 c0 1908 6 1754 -72 1833 -73 76 2 71 -1063 73 -804
1 -962 -1 -997 -13z"/>
<path d="M2750 3732 c0 -5 9 -17 21 -28 12 -10 31 -37 43 -59 l21 -40 -1
-1590 c0 -875 -4 -1603 -8 -1620 -8 -33 -51 -94 -72 -102 -35 -13 4 -19 108
-17 137 4 147 5 172 24 53 41 79 73 96 117 17 46 18 124 18 1593 0 1653 2
1585 -50 1645 -28 32 -73 66 -93 69 -8 1 -18 5 -21 9 -10 10 -234 9 -234 -1z"/>
<path d="M3290 3610 c0 -5 4 -10 9 -10 5 0 24 -15 43 -34 70 -70 66 42 66
-1563 1 -965 -2 -1464 -9 -1495 -6 -26 -21 -59 -34 -74 -13 -15 -22 -31 -20
-34 5 -8 156 -4 193 4 43 10 100 60 123 109 l23 48 -1 1432 c0 788 -2 1446 -5
1463 -7 35 -26 73 -48 91 -8 7 -10 13 -5 13 10 0 -21 20 -65 41 -33 16 -270
24 -270 9z"/>
</g>
</svg>
